# xmcd
#
# Track frame offsets:
#	150
#	15506
#	34397
#	46229
#	63120
#	81574
#	98262
#	116970
#	131957
#	147967
#	165493
#
# Disc length: 2443 seconds
#
# Revision: 1
# Processed by: cddbd v1.5.2PL0 Copyright (c) Steve Scherf et al.
# Submitted via: audiograbber 1.83.01
#
DISCID=9109890b
DTITLE=Shane Wyatt - The Last Cowboy
DYEAR=2008
DGENRE=Country
TTITLE0=Waiting for Forever
TTITLE1=The Last Cowboy
TTITLE2=Whole Lotta Love
TTITLE3=Just Married
TTITLE4=Lord Help Me (Show Her How I Feel)
TTITLE5=Fly Away
TTITLE6=Princess
TTITLE7=Love You Too Much
TTITLE8=Happy Hour
TTITLE9=She Could Do Better
TTITLE10=The Big Bad Dog
EXTD=
EXTT0=
EXTT1=
EXTT2=
EXTT3=
EXTT4=
EXTT5=
EXTT6=
EXTT7=
EXTT8=
EXTT9=
EXTT10=
PLAYORDER=
